<svg xmlns="http://www.w3.org/2000/svg" width="960" height="540" viewBox="0 0 960 540" role="img" aria-labelledby="title desc">
  <title id="title">The Strata of Seoul</title>
  <desc id="desc">Preview thumbnail for a MapLibre dashboard that visualizes Seoul building-age layers as stacked urban strata.</desc>
  <rect width="960" height="540" fill="#eef1ef"/>
  <path d="M0 440 C150 390 315 420 470 380 C650 335 760 360 960 295 L960 540 L0 540 Z" fill="#dbe4e6"/>
  <path d="M0 386 C155 350 310 372 470 330 C630 288 792 306 960 246" fill="none" stroke="#c4d0d2" stroke-width="24" opacity=".75"/>
  <path d="M0 392 C155 356 310 378 470 336 C630 294 792 312 960 252" fill="none" stroke="#f7faf9" stroke-width="6" opacity=".9"/>
  <g opacity=".28" stroke="#b9c8cb" stroke-width="1">
    <path d="M80 0 V540"/>
    <path d="M190 0 V540"/>
    <path d="M300 0 V540"/>
    <path d="M410 0 V540"/>
    <path d="M520 0 V540"/>
    <path d="M630 0 V540"/>
    <path d="M740 0 V540"/>
    <path d="M850 0 V540"/>
    <path d="M0 90 H960"/>
    <path d="M0 180 H960"/>
    <path d="M0 270 H960"/>
    <path d="M0 360 H960"/>
    <path d="M0 450 H960"/>
  </g>
  <g transform="translate(56 44)">
    <rect width="400" height="132" rx="8" fill="#fbfcfa" opacity=".94" stroke="#d6dedb"/>
    <text x="24" y="34" font-family="Inter, Arial, sans-serif" font-size="12" font-weight="700" fill="#304f64" letter-spacing="1.4">SEOUL / ARCHITECTURAL AGE EXPLORER</text>
    <text x="24" y="78" font-family="Inter, Arial, sans-serif" font-size="38" font-weight="800" fill="#16242f">The Strata of Seoul</text>
    <text x="24" y="108" font-family="Inter, Arial, sans-serif" font-size="16" fill="#5d6c77">Stacked building-age layers for urban exploration.</text>
  </g>
  <g transform="translate(56 205)">
    <rect width="260" height="230" rx="8" fill="#fbfcfa" opacity=".92" stroke="#d6dedb"/>
    <text x="20" y="34" font-family="Inter, Arial, sans-serif" font-size="13" font-weight="700" fill="#5d6c77">Era Focus</text>
    <g font-family="Inter, Arial, sans-serif" font-size="15" font-weight="650" fill="#16242f">
      <rect x="20" y="54" width="220" height="34" rx="7" fill="#f2f4f8" stroke="#d0d9dc"/>
      <text x="34" y="76">All strata</text>
      <rect x="20" y="99" width="220" height="34" rx="7" fill="#ffffff" stroke="#d0d9dc"/>
      <text x="34" y="121">Bedrock · 1920s-1950s</text>
      <rect x="20" y="144" width="220" height="34" rx="7" fill="#ffffff" stroke="#d0d9dc"/>
      <text x="34" y="166">Mid-strata · 1960s-1980s</text>
      <rect x="20" y="189" width="220" height="34" rx="7" fill="#ffffff" stroke="#d0d9dc"/>
      <text x="34" y="211">Upper shelf · 1990s-2010s</text>
    </g>
  </g>
  <g transform="translate(380 82)">
    <rect x="0" y="210" width="96" height="72" rx="5" fill="#c7772f" opacity=".92"/>
    <rect x="18" y="172" width="96" height="72" rx="5" fill="#d9893b" opacity=".9"/>
    <rect x="36" y="130" width="96" height="72" rx="5" fill="#a0b6ff" opacity=".82"/>
    <rect x="54" y="88" width="96" height="72" rx="5" fill="#d6deff" opacity=".64"/>
    <rect x="150" y="245" width="128" height="78" rx="5" fill="#c7772f" opacity=".92"/>
    <rect x="178" y="200" width="128" height="78" rx="5" fill="#d9893b" opacity=".9"/>
    <rect x="206" y="154" width="128" height="78" rx="5" fill="#a0b6ff" opacity=".82"/>
    <rect x="234" y="108" width="128" height="78" rx="5" fill="#d6deff" opacity=".64"/>
    <rect x="322" y="222" width="86" height="66" rx="5" fill="#c7772f" opacity=".92"/>
    <rect x="342" y="184" width="86" height="66" rx="5" fill="#d9893b" opacity=".9"/>
    <rect x="362" y="144" width="86" height="66" rx="5" fill="#a0b6ff" opacity=".82"/>
    <rect x="382" y="104" width="86" height="66" rx="5" fill="#d6deff" opacity=".64"/>
    <line x1="214" y1="40" x2="214" y2="344" stroke="#16242f" stroke-width="2" stroke-dasharray="6 8" opacity=".45"/>
    <circle cx="214" cy="40" r="8" fill="#fff3d8" stroke="#d9893b" stroke-width="3"/>
  </g>
  <g transform="translate(560 410)" font-family="Inter, Arial, sans-serif" font-size="13" fill="#5d6c77">
    <rect x="0" y="0" width="14" height="14" rx="7" fill="#c7772f"/>
    <text x="22" y="12">Bedrock</text>
    <rect x="96" y="0" width="14" height="14" rx="7" fill="#d9893b"/>
    <text x="118" y="12">Mid</text>
    <rect x="216" y="0" width="14" height="14" rx="7" fill="#a0b6ff"/>
    <text x="238" y="12">Upper</text>
  </g>
</svg>
